<svg width="28" height="26" viewBox="0 0 28 26" fill="none" xmlns="http://www.w3.org/2000/svg">
<path fill-rule="evenodd" clip-rule="evenodd" d="M2.01487 8.06026C3.77789 4.27286 7.64961 0.855103 14.2393 0.855103L14.2541 0.855241C21.4137 0.988406 27.2335 6.52916 27.0856 13.2677L27.0855 13.2742H27.0854C27.0162 15.5687 26.2941 17.6199 25.1181 19.4179L26.5636 23.6419C26.6609 23.9261 26.5905 24.2409 26.3815 24.4567C26.1725 24.6725 25.8601 24.7529 25.5729 24.6647L25.8074 23.9007L25.5729 24.6647L25.5727 24.6647L25.5721 24.6645L25.5694 24.6637L25.559 24.6605L25.5179 24.6479L25.3619 24.6001C25.2273 24.559 25.0349 24.5003 24.8038 24.43C24.3414 24.2894 23.7247 24.1028 23.1061 23.9182C22.4867 23.7333 21.869 23.5516 21.4034 23.4204C21.2251 23.3701 21.073 23.3284 20.9534 23.297C18.8348 24.531 16.3863 25.2046 13.7429 25.1409C6.5875 25.0066 0.771078 19.4711 0.913701 12.7372C0.915227 11.0228 1.36298 9.46069 2.01487 8.06026ZM24.5454 22.6814L23.4769 19.5589C23.3943 19.3177 23.4318 19.0516 23.5777 18.8426C24.73 17.1924 25.4237 15.3252 25.4876 13.2294C25.6115 7.49338 20.6207 2.57613 14.2318 2.45358C8.30749 2.45611 4.98098 5.47604 3.46403 8.73484C2.88493 9.97889 2.51217 11.3129 2.51217 12.746L2.51198 12.7636C2.38603 18.5032 7.38148 23.4238 13.7751 23.5428L13.7795 23.5428C16.2193 23.602 18.4614 22.9536 20.3856 21.7743C20.4803 21.7148 20.5648 21.6892 20.6059 21.6781C20.6751 21.6595 20.7326 21.6541 20.7641 21.6519C20.8277 21.6477 20.8793 21.6517 20.9022 21.6538C20.9533 21.6583 20.9998 21.6667 21.028 21.6721C21.0904 21.684 21.1643 21.7014 21.2388 21.72C21.392 21.7583 21.5994 21.8149 21.837 21.8818C22.3148 22.0165 22.942 22.2011 23.5632 22.3865C23.8994 22.4868 24.2349 22.5877 24.5454 22.6814Z" fill="#303030"/>
<circle cx="8.99259" cy="12.9887" r="0.799236" fill="#303030"/>
<circle cx="13.7875" cy="12.9887" r="0.799236" fill="#303030"/>
<circle cx="18.5834" cy="12.9887" r="0.799236" fill="#303030"/>
</svg>
