<svg width="20" height="20" viewBox="0 0 20 20" fill="none" xmlns="http://www.w3.org/2000/svg">
<path d="M19.7291 9.50755L17.0654 6.83131C16.7197 6.48535 16.1759 6.46637 15.8525 6.79334C15.5292 7.1182 15.5453 7.66315 15.8924 8.01122L17.1669 9.29168H10.8352V2.84859L12.109 4.12834C12.4554 4.475 12.9985 4.49469 13.3211 4.16702C13.6459 3.84075 13.6305 3.2965 13.2826 2.94844L10.6197 0.271489C10.2732 -0.0751707 9.73014 -0.0920467 9.4068 0.233518C9.3977 0.241956 9.3921 0.250394 9.38511 0.260239C9.37321 0.26938 9.35991 0.277818 9.34731 0.291178L6.72282 2.93086C6.38129 3.2747 6.36659 3.81544 6.69203 4.1417C7.01607 4.46586 7.55496 4.45321 7.89789 4.11076L9.17515 2.82538V9.29168H2.81129L4.09204 8.007C4.43357 7.66315 4.44547 7.12101 4.12073 6.79685C3.79739 6.46988 3.2585 6.48465 2.91767 6.82709L0.288977 9.46536C0.27708 9.47942 0.269381 9.49138 0.258883 9.50263C0.250485 9.51107 0.240687 9.51739 0.232988 9.52372C-0.0924484 9.8521 -0.0749519 10.3963 0.27288 10.743L2.93516 13.42C3.28089 13.768 3.82469 13.7856 4.14803 13.4593C4.47136 13.1331 4.45457 12.5874 4.10883 12.2407L2.83508 10.961H9.17515V17.1509L7.90349 15.8712C7.55706 15.5238 7.01397 15.5062 6.68993 15.8332C6.36589 16.1588 6.38269 16.703 6.72912 17.0497L9.3921 19.7266C9.73854 20.0754 10.2816 20.0923 10.6057 19.7667C10.6148 19.7576 10.6204 19.7498 10.626 19.7386C10.6386 19.7294 10.6512 19.7203 10.6652 19.7091L13.2903 17.068C13.6326 16.7276 13.6473 16.1848 13.3218 15.8578C12.9964 15.5344 12.4582 15.547 12.1167 15.8874L10.8366 17.1734L10.8373 10.961H17.1907L15.9099 12.2478C15.5684 12.5888 15.5558 13.1303 15.8798 13.4586C16.2032 13.7835 16.7421 13.7701 17.0843 13.4263L19.7116 10.7866C19.7235 10.7754 19.7319 10.7613 19.7431 10.7493C19.7522 10.7409 19.762 10.736 19.7704 10.7282C20.0916 10.4013 20.0748 9.85632 19.7291 9.50755Z" fill="#FCFEFF"/>
</svg>
