<svg width="24" height="24" viewBox="0 0 24 24" fill="none" xmlns="http://www.w3.org/2000/svg">
<circle cx="12" cy="12" r="12" fill="#FCFEFF"/>
<path d="M13.9348 23.8438C13.8345 23.8601 13.7339 23.8752 13.6328 23.8889C13.7339 23.8752 13.8345 23.8601 13.9348 23.8438Z" fill="#2F80ED"/>
<path d="M14.1757 23.8028C14.1278 23.8116 14.08 23.8197 14.0322 23.8279C14.08 23.8197 14.1278 23.8116 14.1757 23.8028Z" fill="#2F80ED"/>
<path d="M13.3657 23.9221C13.2483 23.9352 13.1302 23.947 13.0117 23.9568C13.1302 23.947 13.2483 23.9352 13.3657 23.9221Z" fill="#2F80ED"/>
<path d="M13.596 23.894C13.5398 23.9015 13.4832 23.9085 13.4268 23.9151C13.4832 23.9085 13.5398 23.9015 13.596 23.894Z" fill="#2F80ED"/>
<path d="M14.5021 23.7381C14.4599 23.7471 14.4174 23.756 14.375 23.7646C14.4174 23.756 14.4599 23.7471 14.5021 23.7381Z" fill="#2F80ED"/>
<path d="M15.3125 23.5366C15.2783 23.5463 15.2441 23.5555 15.21 23.565C15.2441 23.5555 15.2783 23.5463 15.3125 23.5366Z" fill="#2F80ED"/>
<path d="M15.0678 23.6036C15.0306 23.6133 14.9933 23.6232 14.9561 23.6325C14.9933 23.6232 15.0306 23.6135 15.0678 23.6036Z" fill="#2F80ED"/>
<path d="M14.7466 23.6838C14.7073 23.693 14.6676 23.7016 14.6279 23.7104C14.6676 23.7016 14.7073 23.693 14.7466 23.6838Z" fill="#2F80ED"/>
<path d="M13.0091 23.9572C12.9459 23.9625 12.8827 23.9673 12.8193 23.9715C12.8827 23.9673 12.9459 23.9625 13.0091 23.9572Z" fill="#2F80ED"/>
<path d="M24 12C24 5.3736 18.6264 0 12 0C5.3736 0 0 5.3736 0 12C0 18.6264 5.3736 24 12 24C12.0705 24 12.1406 23.9985 12.2109 23.9973V14.6558H9.63281V11.6512H12.2109V9.44019C12.2109 6.87598 13.7763 5.48035 16.0637 5.48035C17.159 5.48035 18.1005 5.56201 18.375 5.59845V8.27838H16.7977C15.5533 8.27838 15.3124 8.86981 15.3124 9.73755V11.6512H18.2878L17.9 14.6558H15.3124V23.5364C20.3282 22.0984 24 17.4774 24 12Z" fill="#2F80ED"/>
<path d="M12.7921 23.973C12.6672 23.981 12.5418 23.9875 12.416 23.9917C12.5418 23.9875 12.6672 23.981 12.7921 23.973Z" fill="#2F80ED"/>
<path d="M12.4093 23.9924C12.343 23.9946 12.2765 23.9962 12.21 23.9973C12.2765 23.9962 12.343 23.9946 12.4093 23.9924Z" fill="#2F80ED"/>
</svg>
