<svg width="18" height="18" viewBox="0 0 18 18" fill="none" xmlns="http://www.w3.org/2000/svg">
<g clip-path="url(#clip0_2795:148649)">
<path d="M6.58521 7.46339C8.64617 7.46339 10.3169 5.79265 10.3169 3.7317C10.3169 1.67074 8.64617 0 6.58521 0C4.52425 0 2.85352 1.67074 2.85352 3.7317C2.85352 5.79265 4.52425 7.46339 6.58521 7.46339Z" fill="#FCFEFF"/>
<path d="M13.5004 10.7999C11.5122 10.7999 9.90039 12.4117 9.90039 14.3999C9.90039 16.3882 11.5122 17.9999 13.5004 17.9999C15.4885 17.9999 17.1004 16.3882 17.1004 14.3999C17.1003 12.4117 15.4885 10.7999 13.5004 10.7999ZM15.5575 14.767H14.0724V16.457H13.0222V14.767H11.4433V13.9228H13.0222V12.3428H14.0724V13.9228H15.5575V14.767Z" fill="#FCFEFF"/>
<path fill-rule="evenodd" clip-rule="evenodd" d="M10.8 17.9999C9.70718 17.1789 9.00031 15.8719 9.00031 14.3998C9.00031 12.432 10.2634 10.7592 12.023 10.148C10.8508 8.37621 8.88979 7.46338 6.58634 7.46338C2.94939 7.46338 0.000976562 10.4118 0.000976562 14.0487C0.00203515 14.1101 0.00304184 14.1717 0.00405221 14.2335C0.0236467 15.4323 0.0446301 16.7161 0.47255 17.9999H10.8Z" fill="#FCFEFF"/>
</g>
<defs>
<clipPath id="clip0_2795:148649">
<rect width="18" height="18" fill="white" transform="translate(0.000976562)"/>
</clipPath>
</defs>
</svg>
