<svg width="18" height="18" viewBox="0 0 18 18" fill="none" xmlns="http://www.w3.org/2000/svg">
<g clip-path="url(#clip0_2871:148281)">
<path d="M16.4161 2.14465H1.58012C1.33659 2.14465 1.10861 2.20452 0.902344 2.30321L8.96293 10.3638L10.7696 8.62754C10.7696 8.62754 10.7697 8.62736 10.7698 8.62729C10.7698 8.62722 10.7699 8.62715 10.7699 8.62715L17.0941 2.30335C16.8878 2.20459 16.6597 2.14465 16.4161 2.14465Z" fill="#FCFEFF"/>
<path d="M17.842 3.04797L11.8906 8.99901L17.8418 14.9502C17.9404 14.7439 18.0003 14.5159 18.0003 14.2724V3.7255C18.0003 3.48212 17.9406 3.25417 17.842 3.04797Z" fill="#FCFEFF"/>
<path d="M0.158555 3.04797C0.0598711 3.25424 0 3.48222 0 3.72575V14.2726C0 14.516 0.0598008 14.744 0.158414 14.9502L6.10977 8.99919L0.158555 3.04797Z" fill="#FCFEFF"/>
<path d="M11.1429 9.74543L9.33605 11.4819C9.23304 11.5849 9.09811 11.6364 8.96322 11.6364C8.82832 11.6364 8.69336 11.5849 8.59038 11.4819L6.85381 9.74536L0.902344 15.6964C1.10864 15.7952 1.33677 15.8551 1.58037 15.8551H16.4163C16.6598 15.8551 16.8878 15.7953 17.0941 15.6966L11.1429 9.74543Z" fill="#FCFEFF"/>
</g>
<defs>
<clipPath id="clip0_2871:148281">
<rect width="18" height="18" fill="white"/>
</clipPath>
</defs>
</svg>
