<svg width="24" height="24" viewBox="0 0 24 24" fill="none" xmlns="http://www.w3.org/2000/svg">
<path d="M12.4297 24C14.2649 23.7387 15.8738 21.8194 16.8862 18.9849C15.4227 18.6565 13.9292 18.4802 12.4297 18.4592V24Z" fill="#CACACA"/>
<path d="M15.362 23.5489C15.4705 23.5174 15.5786 23.4857 15.6858 23.4509C15.7763 23.4217 15.8655 23.3902 15.9547 23.359C16.0603 23.3224 16.1654 23.2849 16.2701 23.245C16.3594 23.211 16.4477 23.1749 16.5363 23.1388C16.6385 23.0958 16.7405 23.053 16.8415 23.01C16.9296 22.9711 17.0172 22.9304 17.1047 22.8895C17.2038 22.8427 17.3024 22.7951 17.4002 22.7455C17.4861 22.7017 17.5718 22.657 17.6576 22.611C17.7538 22.5594 17.8493 22.5067 17.9441 22.4526C18.03 22.4039 18.1127 22.355 18.1963 22.3046C18.2893 22.2474 18.3818 22.1901 18.4738 22.1328C18.5561 22.0803 18.6382 22.027 18.7192 21.972C18.8097 21.911 18.8989 21.8474 18.9877 21.7838C19.0675 21.7265 19.1469 21.6694 19.2248 21.6119C19.3107 21.5456 19.3986 21.477 19.4847 21.4082C19.5611 21.3471 19.6374 21.2864 19.7126 21.2237C19.7982 21.1523 19.8803 21.0785 19.9635 21.0046C20.0363 20.9398 20.1096 20.8755 20.1808 20.809C20.2627 20.7324 20.3425 20.6531 20.4223 20.5744C20.4914 20.506 20.5614 20.4386 20.629 20.3685C20.6416 20.3555 20.6535 20.3415 20.6665 20.328C19.731 19.8439 18.7456 19.4639 17.7276 19.1948C17.1981 20.8867 16.2559 22.4199 14.9863 23.6551C15.0211 23.646 15.0559 23.6387 15.0906 23.6297C15.1824 23.6038 15.2724 23.5755 15.362 23.5489Z" fill="#CACACA"/>
<path d="M23.999 12.4297H18.8562C18.8368 14.4418 18.5454 16.4419 17.9902 18.3757C19.1224 18.6787 20.215 19.1143 21.2454 19.6736C22.9372 17.6305 23.9056 15.0831 23.999 12.4297Z" fill="#CACACA"/>
<path d="M12.4297 11.5704H17.9999C17.9781 9.62947 17.6939 7.70049 17.1555 5.83594C15.6045 6.19038 14.0203 6.37967 12.4297 6.40065V11.5704Z" fill="#CACACA"/>
<path d="M12.4297 0V5.54077C13.9292 5.51957 15.4227 5.3435 16.8862 5.01508C15.8738 2.18059 14.2649 0.261268 12.4297 0Z" fill="#CACACA"/>
<path d="M12.4297 17.5994C14.0203 17.6206 15.6045 17.8099 17.1555 18.1643C17.6939 16.2998 17.9781 14.3706 17.9999 12.4297H12.4297V17.5994Z" fill="#CACACA"/>
<path d="M21.2454 4.32617C20.215 4.88543 19.1224 5.32109 17.9902 5.62412C18.5454 7.55792 18.8368 9.55803 18.8562 11.5701H23.999C23.9054 8.91693 22.937 6.36952 21.2454 4.32617Z" fill="#CACACA"/>
<path d="M20.666 3.67363C20.6534 3.66083 20.6415 3.64698 20.6291 3.63375C20.5613 3.56366 20.4909 3.49609 20.4218 3.42789C20.3422 3.34919 20.2628 3.26966 20.1807 3.19327C20.1097 3.12696 20.0362 3.06421 19.9633 2.99811C19.8802 2.92424 19.797 2.84974 19.7116 2.77839C19.6375 2.71564 19.5614 2.65563 19.486 2.5954C19.4002 2.52573 19.3122 2.45648 19.2238 2.38995C19.1463 2.3314 19.0678 2.27474 18.9888 2.21808C18.8992 2.15345 18.8092 2.08902 18.7178 2.02753C18.6376 1.97339 18.5562 1.92051 18.4747 1.86868C18.3819 1.80887 18.2893 1.75032 18.1949 1.69366C18.1122 1.64392 18.0286 1.59482 17.9448 1.54718C17.8489 1.4922 17.7528 1.4389 17.6558 1.38685C17.5699 1.34383 17.4843 1.29703 17.3984 1.25401C17.2998 1.20407 17.2003 1.15601 17.0983 1.1088C17.0124 1.06787 16.9253 1.028 16.8369 0.989179C16.7354 0.94406 16.6327 0.903349 16.5303 0.860329C16.4419 0.824234 16.354 0.788559 16.2648 0.754562C16.1607 0.71469 16.0551 0.677336 15.9496 0.640822C15.8604 0.609344 15.7711 0.578076 15.6807 0.548696C15.5734 0.51386 15.4662 0.482172 15.356 0.450275C15.2668 0.424043 15.1772 0.397392 15.0869 0.373468C15.0524 0.364025 15.0172 0.35668 14.9824 0.347656C16.252 1.58285 17.194 3.11584 17.7237 4.80789C18.7428 4.53885 19.7296 4.1586 20.666 3.67363Z" fill="#CACACA"/>
<path d="M0 11.5701H5.14279C5.16227 9.55803 5.45359 7.55792 6.00858 5.62412C4.87661 5.3213 3.784 4.88564 2.7536 4.32617C1.06182 6.36931 0.0934063 8.91693 0 11.5701Z" fill="#CACACA"/>
<path d="M11.5698 24V18.4592C10.0702 18.4804 8.57679 18.6565 7.11328 18.9849C8.12546 21.8194 9.73452 23.7387 11.5698 24Z" fill="#CACACA"/>
<path d="M11.5703 12.4297H6C6.02178 14.3706 6.30577 16.2998 6.84443 18.1643C8.39548 17.8097 9.97941 17.6204 11.5703 17.5994V12.4297Z" fill="#CACACA"/>
<path d="M11.5698 0C9.73452 0.261268 8.12546 2.18059 7.11328 5.01508C8.57679 5.34371 10.0702 5.51978 11.5698 5.54077V0Z" fill="#CACACA"/>
<path d="M11.5703 6.40065C9.97962 6.37967 8.39548 6.19038 6.84443 5.83594C6.30577 7.70049 6.02178 9.62947 6 11.5704H11.5703V6.40065Z" fill="#CACACA"/>
<path d="M9.01292 0.346924C8.97815 0.355948 8.94339 0.363292 8.90862 0.372316C8.81773 0.396659 8.72809 0.42373 8.63762 0.449962C8.52997 0.48144 8.42316 0.513128 8.3151 0.547544C8.22399 0.577133 8.13436 0.608611 8.04472 0.639879C7.9398 0.677024 7.83466 0.713958 7.73078 0.75341C7.64115 0.787826 7.55277 0.823501 7.46397 0.860016C7.36197 0.903036 7.25977 0.946056 7.15904 0.988866C7.07066 1.02769 6.98332 1.0684 6.89578 1.10932C6.79672 1.15612 6.69808 1.20376 6.60027 1.25328C6.51441 1.29714 6.42854 1.34205 6.34288 1.3878C6.24675 1.43942 6.15146 1.4923 6.0568 1.54645C5.97093 1.5945 5.88653 1.64382 5.80381 1.69418C5.71061 1.75042 5.61846 1.80855 5.52673 1.86605C5.44421 1.91894 5.36233 1.97224 5.28128 2.02722C5.1908 2.08829 5.10158 2.15187 5.01278 2.21546C4.93299 2.27275 4.85362 2.32983 4.7755 2.38754C4.68775 2.45364 4.60398 2.52248 4.5156 2.5911C4.43936 2.65217 4.3625 2.71281 4.28794 2.77598C4.20208 2.84691 4.12061 2.92036 4.03788 2.99381C3.96458 3.05928 3.89065 3.12287 3.81903 3.19065C3.73756 3.26683 3.65818 3.34594 3.5786 3.42443C3.50949 3.49284 3.43912 3.56041 3.37126 3.63071C3.35891 3.64372 3.34697 3.65799 3.33398 3.67121C4.2693 4.15556 5.25489 4.5356 6.27293 4.80463C6.80237 3.11363 7.74398 1.58149 9.01292 0.346924Z" fill="#CACACA"/>
<path d="M3.57657 20.5715C3.65637 20.6502 3.73574 20.7298 3.81763 20.8064C3.88884 20.8725 3.96214 20.9352 4.03523 21.0013C4.11837 21.0754 4.20152 21.1497 4.28697 21.221C4.3611 21.2834 4.43671 21.3436 4.51252 21.404C4.59839 21.4737 4.68405 21.543 4.77494 21.6099C4.85222 21.668 4.93076 21.7243 5.00929 21.782C5.09893 21.8464 5.1894 21.9108 5.28072 21.9727C5.36093 22.0269 5.4424 22.0798 5.52387 22.1318C5.61664 22.1914 5.70921 22.25 5.80367 22.3066C5.88639 22.3566 5.96996 22.4055 6.05373 22.4533C6.14965 22.5083 6.24578 22.5616 6.34274 22.6134C6.4284 22.6564 6.51427 22.7032 6.60013 22.7463C6.69878 22.7962 6.79826 22.8443 6.90025 22.8917C6.98612 22.9322 7.07324 22.9721 7.16162 23.0111C7.26319 23.0562 7.36561 23.0969 7.46823 23.1399C7.55661 23.176 7.64457 23.2117 7.73379 23.2457C7.83787 23.2858 7.94343 23.3231 8.04898 23.3597C8.1382 23.3909 8.22742 23.4224 8.31789 23.4516C8.42512 23.4864 8.53235 23.5183 8.64251 23.55C8.73173 23.5762 8.82136 23.6029 8.91142 23.627C8.94618 23.6365 8.98137 23.6438 9.01613 23.6528C7.74656 22.4174 6.80454 20.8844 6.27489 19.1924C5.25684 19.4616 4.27126 19.8417 3.33594 20.3262C3.3485 20.339 3.36044 20.3529 3.37301 20.3661C3.4373 20.4358 3.50662 20.5033 3.57657 20.5715Z" fill="#CACACA"/>
<path d="M2.7536 19.6736C3.784 19.1143 4.87661 18.6787 6.00858 18.3757C5.45359 16.4419 5.16227 14.4418 5.14279 12.4297H0C0.0936158 15.0829 1.06182 17.6303 2.7536 19.6736Z" fill="#CACACA"/>
</svg>
