<svg width="15" height="15" viewBox="0 0 15 15" fill="none" xmlns="http://www.w3.org/2000/svg">
<g clip-path="url(#clip0_2815:12170)">
<path d="M10.7426 7.49946C10.7426 5.97184 9.49974 4.729 7.97211 4.729C6.44449 4.729 5.20166 5.97184 5.20166 7.49946C5.20166 9.02709 6.44446 10.2699 7.97211 10.2699C9.49976 10.2699 10.7426 9.02709 10.7426 7.49946ZM6.37353 7.49943C6.37353 6.61798 7.09066 5.90088 7.97211 5.90088C8.85357 5.90088 9.57069 6.61801 9.57069 7.49946C9.57069 8.38092 8.85359 9.09805 7.97211 9.09805C7.09066 9.09805 6.37353 8.38089 6.37353 7.49943Z" fill="#009EF7"/>
<path d="M7.97023 0.469482C4.46336 0.469482 1.60955 3.01872 1.04383 6.28494H0.586448C0.370354 6.28494 0.17178 6.40389 0.0698271 6.59441C-0.0321553 6.78492 -0.0209639 7.0161 0.0989189 7.1959L1.13656 8.75235C1.24522 8.91536 1.42818 9.01327 1.62408 9.01327C1.82002 9.01327 2.00295 8.91536 2.11161 8.75235L3.14928 7.1959C3.26913 7.0161 3.2803 6.78492 3.17834 6.59441C3.07636 6.40389 2.87782 6.28494 2.66172 6.28494H2.23873C2.79965 3.63563 5.15626 1.64136 7.97017 1.64136C11.2005 1.64136 13.8286 4.26943 13.8286 7.4998C13.8286 10.7302 11.2005 13.3582 7.97017 13.3582C7.64655 13.3582 7.38423 13.6206 7.38423 13.9442C7.38423 14.2678 7.64655 14.5301 7.97017 14.5301C11.8561 14.5301 15.0005 11.3852 15.0005 7.4998C15.0005 3.61383 11.8556 0.469482 7.97023 0.469482Z" fill="#009EF7"/>
</g>
<defs>
<clipPath id="clip0_2815:12170">
<rect width="15" height="15" fill="white"/>
</clipPath>
</defs>
</svg>
