<svg width="60" height="60" viewBox="0 0 60 60" fill="none" xmlns="http://www.w3.org/2000/svg">
<g clip-path="url(#clip0_2815:7793)">
<path d="M50.5823 54.8358H2.9623C1.90044 54.8358 1.00195 53.8542 1.00195 52.694V14.5875C1.00195 13.4273 1.90044 12.4457 2.9623 12.4457H50.5823C51.6441 12.4457 52.5426 13.4273 52.5426 14.5875V52.694C52.5426 53.8542 51.7258 54.8358 50.5823 54.8358Z" stroke="#009EF7" stroke-width="1.99999" stroke-miterlimit="10" stroke-linecap="round"/>
<path d="M52.5449 48.4105H57.0373C58.0992 48.4105 58.9977 47.4289 58.9977 46.2687V8.1622C59.0794 7.00205 58.1809 6.02039 57.119 6.02039H9.41737C8.35552 6.02039 7.45703 7.00205 7.45703 8.1622V12.4458" stroke="#009EF7" stroke-width="1.99999" stroke-miterlimit="10" stroke-linecap="round"/>
<path d="M1.00195 44.4841L15.5412 25.654C15.8679 25.2078 16.4396 25.2078 16.7664 25.654L28.2017 40.2898C28.5284 40.736 29.1002 40.736 29.4269 40.2898L36.6148 30.7408C36.9416 30.2946 37.5133 30.2946 37.8401 30.7408L52.4609 49.3032" stroke="#009EF7" stroke-width="1.99999" stroke-miterlimit="10" stroke-linecap="round"/>
<path d="M40.288 26.3673C42.1827 26.3673 43.7186 24.6892 43.7186 22.6192C43.7186 20.5491 42.1827 18.871 40.288 18.871C38.3933 18.871 36.8574 20.5491 36.8574 22.6192C36.8574 24.6892 38.3933 26.3673 40.288 26.3673Z" stroke="#009EF7" stroke-width="1.99999" stroke-miterlimit="10" stroke-linecap="round"/>
</g>
<defs>
<clipPath id="clip0_2815:7793">
<rect width="60" height="60" fill="white"/>
</clipPath>
</defs>
</svg>
